<svg width="784" height="1117" viewBox="0 0 784 1117" fill="none" xmlns="http://www.w3.org/2000/svg">
<rect width="784" height="1117" fill="#2BA4C9"/>
<path d="M148.055 208.555C128.206 188.996 147.042 170.843 122.996 147.156C98.9436 123.455 80.4873 141.973 60.6871 122.462C46.235 108.224 46.6416 85.3774 60.6871 71.5386C73.244 59.1678 96.497 55.9011 112.362 71.5386C132.079 90.9666 113.478 109.347 137.421 132.938C161.383 156.556 179.978 138.169 199.73 157.631C212.28 170.002 215.594 192.924 199.73 208.555C189.971 218.176 166.38 226.618 148.055 208.555Z" fill="black"/>
<path d="M244.044 208.555C224.195 188.996 243.031 170.843 218.985 147.156C194.933 123.455 176.477 141.973 156.676 122.462C142.224 108.224 142.631 85.3774 156.676 71.5386C169.233 59.1678 192.486 55.9011 208.351 71.5386C228.069 90.9666 209.468 109.347 233.41 132.938C257.373 156.556 275.967 138.169 295.719 157.631C308.269 170.002 311.584 192.924 295.719 208.555C285.96 218.176 262.369 226.618 244.044 208.555Z" fill="white"/>
<path d="M331.984 71.6144C312.135 91.1734 330.971 109.326 306.925 133.014C282.873 156.715 264.416 138.196 244.616 157.707C230.164 171.945 230.571 194.792 244.616 208.631C257.173 221.001 280.426 224.268 296.291 208.631C316.008 189.203 297.407 170.822 321.35 147.231C345.312 123.613 363.907 142.001 383.658 122.538C396.208 110.167 399.523 87.245 383.658 71.6144C373.9 61.9934 350.309 53.5509 331.984 71.6144Z" fill="white"/>
<path d="M420.33 208.555C400.481 188.996 419.317 170.843 395.271 147.156C371.219 123.455 352.762 141.973 332.962 122.462C318.51 108.224 318.917 85.3774 332.962 71.5386C345.519 59.1678 368.772 55.9011 384.637 71.5386C404.355 90.9666 385.754 109.347 409.696 132.938C433.659 156.556 452.253 138.169 472.005 157.631C484.555 170.002 487.87 192.924 472.005 208.555C462.246 218.176 438.655 226.618 420.33 208.555Z" fill="white"/>
<path d="M512.301 208.555C492.453 188.996 511.288 170.843 487.242 147.156C463.19 123.455 444.734 141.973 424.933 122.462C410.481 108.224 410.888 85.3774 424.933 71.5386C437.49 59.1678 460.743 55.9011 476.608 71.5386C496.326 90.9666 477.725 109.347 501.667 132.938C525.63 156.556 544.224 138.169 563.976 157.631C576.526 170.002 579.841 192.924 563.976 208.555C554.217 218.176 530.626 226.618 512.301 208.555Z" fill="white"/>
<path d="M601.791 208.555C581.943 188.996 600.778 170.843 576.733 147.156C552.68 123.455 534.224 141.973 514.424 122.462C499.972 108.224 500.378 85.3774 514.424 71.5386C526.981 59.1678 550.234 55.9011 566.099 71.5386C585.816 90.9666 567.215 109.347 591.157 132.938C615.12 156.556 633.714 138.169 653.466 157.631C666.016 170.002 669.331 192.924 653.466 208.555C643.707 218.176 620.117 226.618 601.791 208.555Z" fill="white"/>
<path d="M327.504 95.1362C327.504 111.906 341.299 125.502 358.317 125.502C375.335 125.502 389.13 111.906 389.13 95.1362C389.13 78.3659 375.335 64.7708 358.317 64.7708C341.299 64.7708 327.504 78.3659 327.504 95.1362Z" fill="black"/>
<path d="M239.619 183.09C239.619 199.86 253.415 213.455 270.433 213.455C287.451 213.455 301.246 199.86 301.246 183.09C301.246 166.319 287.451 152.724 270.433 152.724C253.415 152.724 239.619 166.319 239.619 183.09Z" fill="#2BA4C9"/>
<path d="M326.174 183.09C326.174 198.866 339.152 211.656 355.161 211.656C371.17 211.656 384.148 198.866 384.148 183.09C384.148 167.313 371.17 154.523 355.161 154.523C339.152 154.523 326.174 167.313 326.174 183.09Z" fill="black"/>
<path d="M599.696 95.1362C599.696 110.913 612.674 123.703 628.683 123.703C644.692 123.703 657.67 110.913 657.67 95.1362C657.67 79.3593 644.692 66.5696 628.683 66.5696C612.674 66.5696 599.696 79.3593 599.696 95.1362Z" fill="black"/>
<path d="M675.189 183.09C675.189 198.866 688.167 211.656 704.176 211.656C720.185 211.656 733.163 198.866 733.163 183.09C733.163 167.313 720.185 154.523 704.176 154.523C688.167 154.523 675.189 167.313 675.189 183.09Z" fill="black"/>
<path d="M635.274 378.307C655.122 358.748 636.287 340.595 660.333 316.908C684.385 293.207 702.841 311.725 722.641 292.215C737.094 277.976 736.687 255.13 722.641 241.291C710.085 228.92 686.832 225.653 670.967 241.291C651.249 260.719 669.85 279.099 645.908 302.69C621.945 326.308 603.351 307.921 583.599 327.383C571.049 339.754 567.734 362.676 583.599 378.307C593.358 387.928 616.949 396.371 635.274 378.307Z" fill="black"/>
<path d="M539.291 378.307C559.14 358.748 540.305 340.595 564.35 316.908C588.403 293.207 606.859 311.725 626.659 292.215C641.111 277.976 640.705 255.13 626.659 241.291C614.102 228.92 590.849 225.653 574.984 241.291C555.267 260.719 573.868 279.099 549.926 302.69C525.963 326.308 507.369 307.921 487.617 327.383C475.067 339.754 471.752 362.676 487.617 378.307C497.375 387.928 520.966 396.371 539.291 378.307Z" fill="white"/>
<path d="M451.345 241.367C471.194 260.926 452.358 279.079 476.404 302.766C500.456 326.467 518.913 307.949 538.713 327.459C553.165 341.698 552.758 364.544 538.713 378.383C526.156 390.754 502.903 394.02 487.038 378.383C467.32 358.955 485.921 340.574 461.979 316.984C438.016 293.365 419.422 311.753 399.67 292.29C387.12 279.92 383.805 256.997 399.67 241.367C409.429 231.746 433.02 223.303 451.345 241.367Z" fill="white"/>
<path d="M362.999 378.307C382.847 358.748 364.012 340.595 388.057 316.908C412.11 293.207 430.566 311.725 450.366 292.215C464.818 277.976 464.412 255.13 450.366 241.291C437.809 228.92 414.556 225.653 398.691 241.291C378.974 260.719 397.575 279.099 373.633 302.69C349.67 326.308 331.076 307.921 311.324 327.383C298.774 339.754 295.459 362.676 311.324 378.307C321.083 387.928 344.673 396.371 362.999 378.307Z" fill="white"/>
<path d="M271.034 378.307C290.883 358.748 272.047 340.595 296.093 316.908C320.145 293.207 338.602 311.725 358.402 292.215C372.854 277.976 372.447 255.13 358.402 241.291C345.845 228.92 322.592 225.653 306.727 241.291C287.01 260.719 305.611 279.099 281.668 302.69C257.706 326.308 239.111 307.921 219.36 327.383C206.81 339.754 203.495 362.676 219.36 378.307C229.118 387.928 252.709 396.371 271.034 378.307Z" fill="white"/>
<path d="M181.544 378.307C201.393 358.748 182.557 340.595 206.603 316.908C230.655 293.207 249.112 311.725 268.912 292.215C283.364 277.976 282.957 255.13 268.912 241.291C256.355 228.92 233.102 225.653 217.237 241.291C197.52 260.719 216.121 279.099 192.178 302.69C168.216 326.308 149.621 307.921 129.87 327.383C117.32 339.754 114.005 362.676 129.87 378.307C139.628 387.928 163.219 396.371 181.544 378.307Z" fill="white"/>
<path d="M394.198 264.888C394.198 281.659 407.994 295.254 425.011 295.254C442.029 295.254 455.825 281.659 455.825 264.888C455.825 248.118 442.029 234.523 425.011 234.523C407.994 234.523 394.198 248.118 394.198 264.888Z" fill="black"/>
<path d="M482.089 352.849C482.089 369.619 495.885 383.214 512.903 383.214C529.92 383.214 543.716 369.619 543.716 352.849C543.716 336.078 529.92 322.483 512.903 322.483C495.885 322.483 482.089 336.078 482.089 352.849Z" fill="#2BA4C9"/>
<path d="M399.188 352.849C399.188 368.626 412.166 381.415 428.175 381.415C444.184 381.415 457.162 368.626 457.162 352.849C457.162 337.072 444.184 324.282 428.175 324.282C412.166 324.282 399.188 337.072 399.188 352.849Z" fill="black"/>
<path d="M125.659 264.888C125.659 280.665 138.637 293.455 154.646 293.455C170.655 293.455 183.633 280.665 183.633 264.888C183.633 249.112 170.655 236.322 154.646 236.322C138.637 236.322 125.659 249.112 125.659 264.888Z" fill="black"/>
<path d="M50.1657 352.849C50.1657 368.626 63.1436 381.415 79.1527 381.415C95.1617 381.415 108.14 368.626 108.14 352.849C108.14 337.072 95.1617 324.282 79.1527 324.282C63.1436 324.282 50.1657 337.072 50.1657 352.849Z" fill="black"/>
<path d="M148.055 548.555C128.206 528.996 147.042 510.843 122.996 487.156C98.9436 463.455 80.4873 481.973 60.6871 462.462C46.235 448.224 46.6416 425.377 60.6871 411.539C73.244 399.168 96.497 395.901 112.362 411.539C132.079 430.967 113.478 449.347 137.421 472.938C161.383 496.556 179.978 478.169 199.73 497.631C212.28 510.002 215.594 532.924 199.73 548.555C189.971 558.176 166.38 566.618 148.055 548.555Z" fill="black"/>
<path d="M244.044 548.555C224.195 528.996 243.031 510.843 218.985 487.156C194.933 463.455 176.477 481.973 156.676 462.462C142.224 448.224 142.631 425.377 156.676 411.539C169.233 399.168 192.486 395.901 208.351 411.539C228.069 430.967 209.468 449.347 233.41 472.938C257.373 496.556 275.967 478.169 295.719 497.631C308.269 510.002 311.584 532.924 295.719 548.555C285.96 558.176 262.369 566.618 244.044 548.555Z" fill="white"/>
<path d="M331.984 411.614C312.135 431.173 330.971 449.326 306.925 473.014C282.873 496.715 264.416 478.196 244.616 497.707C230.164 511.945 230.571 534.792 244.616 548.631C257.173 561.001 280.426 564.268 296.291 548.631C316.008 529.203 297.407 510.822 321.35 487.231C345.312 463.613 363.907 482.001 383.658 462.538C396.208 450.167 399.523 427.245 383.658 411.614C373.9 401.993 350.309 393.551 331.984 411.614Z" fill="white"/>
<path d="M420.33 548.555C400.481 528.996 419.317 510.843 395.271 487.156C371.219 463.455 352.762 481.973 332.962 462.462C318.51 448.224 318.917 425.377 332.962 411.539C345.519 399.168 368.772 395.901 384.637 411.539C404.355 430.967 385.754 449.347 409.696 472.938C433.659 496.556 452.253 478.169 472.005 497.631C484.555 510.002 487.87 532.924 472.005 548.555C462.246 558.176 438.655 566.618 420.33 548.555Z" fill="white"/>
<path d="M512.301 548.555C492.453 528.996 511.288 510.843 487.242 487.156C463.19 463.455 444.734 481.973 424.933 462.462C410.481 448.224 410.888 425.377 424.933 411.539C437.49 399.168 460.743 395.901 476.608 411.539C496.326 430.967 477.725 449.347 501.667 472.938C525.63 496.556 544.224 478.169 563.976 497.631C576.526 510.002 579.841 532.924 563.976 548.555C554.217 558.176 530.626 566.618 512.301 548.555Z" fill="white"/>
<path d="M601.791 548.555C581.943 528.996 600.778 510.843 576.733 487.156C552.68 463.455 534.224 481.973 514.424 462.462C499.972 448.224 500.378 425.377 514.424 411.539C526.981 399.168 550.234 395.901 566.099 411.539C585.816 430.967 567.215 449.347 591.157 472.938C615.12 496.556 633.714 478.169 653.466 497.631C666.016 510.002 669.331 532.924 653.466 548.555C643.707 558.176 620.117 566.618 601.791 548.555Z" fill="white"/>
<path d="M327.504 435.136C327.504 451.906 341.299 465.502 358.317 465.502C375.335 465.502 389.13 451.906 389.13 435.136C389.13 418.366 375.335 404.771 358.317 404.771C341.299 404.771 327.504 418.366 327.504 435.136Z" fill="black"/>
<path d="M239.619 523.09C239.619 539.86 253.415 553.455 270.433 553.455C287.451 553.455 301.246 539.86 301.246 523.09C301.246 506.319 287.451 492.724 270.433 492.724C253.415 492.724 239.619 506.319 239.619 523.09Z" fill="#2BA4C9"/>
<path d="M326.174 523.09C326.174 538.866 339.152 551.656 355.161 551.656C371.17 551.656 384.148 538.866 384.148 523.09C384.148 507.313 371.17 494.523 355.161 494.523C339.152 494.523 326.174 507.313 326.174 523.09Z" fill="black"/>
<path d="M599.696 435.136C599.696 450.913 612.674 463.703 628.683 463.703C644.692 463.703 657.67 450.913 657.67 435.136C657.67 419.359 644.692 406.57 628.683 406.57C612.674 406.57 599.696 419.359 599.696 435.136Z" fill="black"/>
<path d="M675.189 523.09C675.189 538.866 688.167 551.656 704.176 551.656C720.185 551.656 733.163 538.866 733.163 523.09C733.163 507.313 720.185 494.523 704.176 494.523C688.167 494.523 675.189 507.313 675.189 523.09Z" fill="black"/>
<path d="M635.274 718.307C655.122 698.748 636.287 680.595 660.333 656.908C684.385 633.207 702.841 651.725 722.641 632.215C737.094 617.976 736.687 595.13 722.641 581.291C710.085 568.92 686.832 565.653 670.967 581.291C651.249 600.719 669.85 619.099 645.908 642.69C621.945 666.308 603.351 647.921 583.599 667.384C571.049 679.754 567.734 702.677 583.599 718.307C593.358 727.928 616.949 736.371 635.274 718.307Z" fill="black"/>
<path d="M539.291 718.307C559.14 698.748 540.305 680.595 564.35 656.908C588.403 633.207 606.859 651.725 626.659 632.215C641.111 617.976 640.705 595.13 626.659 581.291C614.102 568.92 590.849 565.653 574.984 581.291C555.267 600.719 573.868 619.099 549.926 642.69C525.963 666.308 507.369 647.921 487.617 667.384C475.067 679.754 471.752 702.677 487.617 718.307C497.375 727.928 520.966 736.371 539.291 718.307Z" fill="white"/>
<path d="M451.345 581.367C471.194 600.926 452.358 619.079 476.404 642.766C500.456 666.467 518.913 647.949 538.713 667.459C553.165 681.698 552.758 704.544 538.713 718.383C526.156 730.754 502.903 734.02 487.038 718.383C467.32 698.955 485.921 680.574 461.979 656.984C438.016 633.365 419.422 651.753 399.67 632.29C387.12 619.92 383.805 596.997 399.67 581.367C409.429 571.746 433.02 563.303 451.345 581.367Z" fill="white"/>
<path d="M362.999 718.307C382.847 698.748 364.012 680.595 388.057 656.908C412.11 633.207 430.566 651.725 450.366 632.215C464.818 617.976 464.412 595.13 450.366 581.291C437.809 568.92 414.556 565.653 398.691 581.291C378.974 600.719 397.575 619.099 373.633 642.69C349.67 666.308 331.076 647.921 311.324 667.384C298.774 679.754 295.459 702.677 311.324 718.307C321.083 727.928 344.673 736.371 362.999 718.307Z" fill="white"/>
<path d="M271.034 718.307C290.883 698.748 272.047 680.595 296.093 656.908C320.145 633.207 338.602 651.725 358.402 632.215C372.854 617.976 372.447 595.13 358.402 581.291C345.845 568.92 322.592 565.653 306.727 581.291C287.01 600.719 305.611 619.099 281.668 642.69C257.706 666.308 239.111 647.921 219.36 667.384C206.81 679.754 203.495 702.677 219.36 718.307C229.118 727.928 252.709 736.371 271.034 718.307Z" fill="white"/>
<path d="M181.544 718.307C201.393 698.748 182.557 680.595 206.603 656.908C230.655 633.207 249.112 651.725 268.912 632.215C283.364 617.976 282.957 595.13 268.912 581.291C256.355 568.92 233.102 565.653 217.237 581.291C197.52 600.719 216.121 619.099 192.178 642.69C168.216 666.308 149.621 647.921 129.87 667.384C117.32 679.754 114.005 702.677 129.87 718.307C139.628 727.928 163.219 736.371 181.544 718.307Z" fill="white"/>
<path d="M394.198 604.888C394.198 621.659 407.994 635.254 425.011 635.254C442.029 635.254 455.825 621.659 455.825 604.888C455.825 588.118 442.029 574.523 425.011 574.523C407.994 574.523 394.198 588.118 394.198 604.888Z" fill="black"/>
<path d="M482.089 692.849C482.089 709.619 495.885 723.214 512.903 723.214C529.92 723.214 543.716 709.619 543.716 692.849C543.716 676.078 529.92 662.483 512.903 662.483C495.885 662.483 482.089 676.078 482.089 692.849Z" fill="#2BA4C9"/>
<path d="M399.188 692.849C399.188 708.626 412.166 721.415 428.175 721.415C444.184 721.415 457.162 708.626 457.162 692.849C457.162 677.072 444.184 664.282 428.175 664.282C412.166 664.282 399.188 677.072 399.188 692.849Z" fill="black"/>
<path d="M125.659 604.888C125.659 620.665 138.637 633.455 154.646 633.455C170.655 633.455 183.633 620.665 183.633 604.888C183.633 589.112 170.655 576.322 154.646 576.322C138.637 576.322 125.659 589.112 125.659 604.888Z" fill="black"/>
<path d="M50.1657 692.849C50.1657 708.626 63.1436 721.415 79.1527 721.415C95.1617 721.415 108.14 708.626 108.14 692.849C108.14 677.072 95.1617 664.282 79.1527 664.282C63.1436 664.282 50.1657 677.072 50.1657 692.849Z" fill="black"/>
<path d="M148.055 888.555C128.206 868.996 147.042 850.843 122.996 827.156C98.9436 803.455 80.4873 821.973 60.6871 802.462C46.235 788.224 46.6416 765.377 60.6871 751.539C73.244 739.168 96.497 735.901 112.362 751.539C132.079 770.967 113.478 789.347 137.421 812.938C161.383 836.556 179.978 818.169 199.73 837.631C212.28 850.002 215.594 872.924 199.73 888.555C189.971 898.176 166.38 906.618 148.055 888.555Z" fill="black"/>
<path d="M244.044 888.555C224.195 868.996 243.031 850.843 218.985 827.156C194.933 803.455 176.477 821.973 156.676 802.462C142.224 788.224 142.631 765.377 156.676 751.539C169.233 739.168 192.486 735.901 208.351 751.539C228.069 770.967 209.468 789.347 233.41 812.938C257.373 836.556 275.967 818.169 295.719 837.631C308.269 850.002 311.584 872.924 295.719 888.555C285.96 898.176 262.369 906.618 244.044 888.555Z" fill="white"/>
<path d="M331.984 751.614C312.135 771.173 330.971 789.326 306.925 813.014C282.873 836.715 264.416 818.196 244.616 837.707C230.164 851.945 230.571 874.792 244.616 888.631C257.173 901.001 280.426 904.268 296.291 888.631C316.008 869.203 297.407 850.822 321.35 827.231C345.312 803.613 363.907 822.001 383.658 802.538C396.208 790.167 399.523 767.245 383.658 751.614C373.9 741.993 350.309 733.551 331.984 751.614Z" fill="white"/>
<path d="M420.33 888.555C400.481 868.996 419.317 850.843 395.271 827.156C371.219 803.455 352.762 821.973 332.962 802.462C318.51 788.224 318.917 765.377 332.962 751.539C345.519 739.168 368.772 735.901 384.637 751.539C404.355 770.967 385.754 789.347 409.696 812.938C433.659 836.556 452.253 818.169 472.005 837.631C484.555 850.002 487.87 872.924 472.005 888.555C462.246 898.176 438.655 906.618 420.33 888.555Z" fill="white"/>
<path d="M512.301 888.555C492.453 868.996 511.288 850.843 487.242 827.156C463.19 803.455 444.734 821.973 424.933 802.462C410.481 788.224 410.888 765.377 424.933 751.539C437.49 739.168 460.743 735.901 476.608 751.539C496.326 770.967 477.725 789.347 501.667 812.938C525.63 836.556 544.224 818.169 563.976 837.631C576.526 850.002 579.841 872.924 563.976 888.555C554.217 898.176 530.626 906.618 512.301 888.555Z" fill="white"/>
<path d="M601.791 888.555C581.943 868.996 600.778 850.843 576.733 827.156C552.68 803.455 534.224 821.973 514.424 802.462C499.972 788.224 500.378 765.377 514.424 751.539C526.981 739.168 550.234 735.901 566.099 751.539C585.816 770.967 567.215 789.347 591.157 812.938C615.12 836.556 633.714 818.169 653.466 837.631C666.016 850.002 669.331 872.924 653.466 888.555C643.707 898.176 620.117 906.618 601.791 888.555Z" fill="white"/>
<path d="M327.504 775.136C327.504 791.906 341.299 805.501 358.317 805.501C375.335 805.501 389.13 791.906 389.13 775.136C389.13 758.366 375.335 744.771 358.317 744.771C341.299 744.771 327.504 758.366 327.504 775.136Z" fill="black"/>
<path d="M239.619 863.09C239.619 879.86 253.415 893.455 270.433 893.455C287.451 893.455 301.246 879.86 301.246 863.09C301.246 846.319 287.451 832.724 270.433 832.724C253.415 832.724 239.619 846.319 239.619 863.09Z" fill="#2BA4C9"/>
<path d="M326.174 863.09C326.174 878.866 339.152 891.656 355.161 891.656C371.17 891.656 384.148 878.866 384.148 863.09C384.148 847.313 371.17 834.523 355.161 834.523C339.152 834.523 326.174 847.313 326.174 863.09Z" fill="black"/>
<path d="M599.696 775.136C599.696 790.913 612.674 803.703 628.683 803.703C644.692 803.703 657.67 790.913 657.67 775.136C657.67 759.359 644.692 746.57 628.683 746.57C612.674 746.57 599.696 759.359 599.696 775.136Z" fill="black"/>
<path d="M675.189 863.09C675.189 878.866 688.167 891.656 704.176 891.656C720.185 891.656 733.163 878.866 733.163 863.09C733.163 847.313 720.185 834.523 704.176 834.523C688.167 834.523 675.189 847.313 675.189 863.09Z" fill="black"/>
<path d="M635.274 1058.31C655.122 1038.75 636.287 1020.6 660.333 996.908C684.385 973.207 702.841 991.725 722.641 972.215C737.094 957.976 736.687 935.13 722.641 921.291C710.085 908.92 686.832 905.653 670.967 921.291C651.249 940.719 669.85 959.099 645.908 982.69C621.945 1006.31 603.351 987.921 583.599 1007.38C571.049 1019.75 567.734 1042.68 583.599 1058.31C593.358 1067.93 616.949 1076.37 635.274 1058.31Z" fill="black"/>
<path d="M539.291 1058.31C559.14 1038.75 540.305 1020.6 564.35 996.908C588.403 973.207 606.859 991.725 626.659 972.215C641.111 957.976 640.705 935.13 626.659 921.291C614.102 908.92 590.849 905.653 574.984 921.291C555.267 940.719 573.868 959.099 549.926 982.69C525.963 1006.31 507.369 987.921 487.617 1007.38C475.067 1019.75 471.752 1042.68 487.617 1058.31C497.375 1067.93 520.966 1076.37 539.291 1058.31Z" fill="white"/>
<path d="M451.345 921.367C471.194 940.926 452.358 959.079 476.404 982.766C500.456 1006.47 518.913 987.949 538.713 1007.46C553.165 1021.7 552.758 1044.54 538.713 1058.38C526.156 1070.75 502.903 1074.02 487.038 1058.38C467.32 1038.95 485.921 1020.57 461.979 996.984C438.016 973.365 419.422 991.753 399.67 972.29C387.12 959.92 383.805 936.997 399.67 921.367C409.429 911.746 433.02 903.303 451.345 921.367Z" fill="white"/>
<path d="M362.999 1058.31C382.847 1038.75 364.012 1020.6 388.057 996.908C412.11 973.207 430.566 991.725 450.366 972.215C464.818 957.976 464.412 935.13 450.366 921.291C437.809 908.92 414.556 905.653 398.691 921.291C378.974 940.719 397.575 959.099 373.633 982.69C349.67 1006.31 331.076 987.921 311.324 1007.38C298.774 1019.75 295.459 1042.68 311.324 1058.31C321.083 1067.93 344.673 1076.37 362.999 1058.31Z" fill="white"/>
<path d="M271.034 1058.31C290.883 1038.75 272.047 1020.6 296.093 996.908C320.145 973.207 338.602 991.725 358.402 972.215C372.854 957.976 372.447 935.13 358.402 921.291C345.845 908.92 322.592 905.653 306.727 921.291C287.01 940.719 305.611 959.099 281.668 982.69C257.706 1006.31 239.111 987.921 219.36 1007.38C206.81 1019.75 203.495 1042.68 219.36 1058.31C229.118 1067.93 252.709 1076.37 271.034 1058.31Z" fill="white"/>
<path d="M181.544 1058.31C201.393 1038.75 182.557 1020.6 206.603 996.908C230.655 973.207 249.112 991.725 268.912 972.215C283.364 957.976 282.957 935.13 268.912 921.291C256.355 908.92 233.102 905.653 217.237 921.291C197.52 940.719 216.121 959.099 192.178 982.69C168.216 1006.31 149.621 987.921 129.87 1007.38C117.32 1019.75 114.005 1042.68 129.87 1058.31C139.628 1067.93 163.219 1076.37 181.544 1058.31Z" fill="white"/>
<path d="M394.198 944.888C394.198 961.659 407.994 975.254 425.011 975.254C442.029 975.254 455.825 961.659 455.825 944.888C455.825 928.118 442.029 914.523 425.011 914.523C407.994 914.523 394.198 928.118 394.198 944.888Z" fill="black"/>
<path d="M482.089 1032.85C482.089 1049.62 495.885 1063.21 512.903 1063.21C529.92 1063.21 543.716 1049.62 543.716 1032.85C543.716 1016.08 529.92 1002.48 512.903 1002.48C495.885 1002.48 482.089 1016.08 482.089 1032.85Z" fill="#2BA4C9"/>
<path d="M399.188 1032.85C399.188 1048.63 412.166 1061.42 428.175 1061.42C444.184 1061.42 457.162 1048.63 457.162 1032.85C457.162 1017.07 444.184 1004.28 428.175 1004.28C412.166 1004.28 399.188 1017.07 399.188 1032.85Z" fill="black"/>
<path d="M125.659 944.888C125.659 960.665 138.637 973.455 154.646 973.455C170.655 973.455 183.633 960.665 183.633 944.888C183.633 929.112 170.655 916.322 154.646 916.322C138.637 916.322 125.659 929.112 125.659 944.888Z" fill="black"/>
<path d="M50.1657 1032.85C50.1657 1048.63 63.1436 1061.42 79.1527 1061.42C95.1617 1061.42 108.14 1048.63 108.14 1032.85C108.14 1017.07 95.1617 1004.28 79.1527 1004.28C63.1436 1004.28 50.1657 1017.07 50.1657 1032.85Z" fill="black"/>
</svg>
